<svg width="72" height="72" viewBox="0 0 72 72" fill="none" xmlns="http://www.w3.org/2000/svg">
<rect width="72" height="72" rx="20" fill="#104EFF"/>
<path d="M36 37.4375V36.4792M43.6667 37.4375V36.4792M28.3333 37.4375V36.4792M36 53.25C39.4117 53.25 42.7468 52.2383 45.5836 50.3429C48.4203 48.4474 50.6313 45.7533 51.9369 42.6013C53.2425 39.4493 53.5841 35.9809 52.9185 32.6347C52.253 29.2885 50.61 26.2149 48.1976 23.8024C45.7851 21.39 42.7115 19.7471 39.3653 19.0815C36.0191 18.4159 32.5507 18.7575 29.3987 20.0631C26.2467 21.3687 23.5526 23.5797 21.6571 26.4164C19.7617 29.2532 18.75 32.5883 18.75 36C18.75 38.76 19.3978 41.3667 20.5517 43.6801C21.4199 45.4262 20.2124 47.7818 19.7524 49.501C19.6505 49.8813 19.6505 50.2816 19.7524 50.6619C19.8542 51.0421 20.0544 51.3889 20.3328 51.6672C20.6111 51.9456 20.9579 52.1458 21.3381 52.2476C21.7184 52.3495 22.1188 52.3495 22.499 52.2476C24.2182 51.7876 26.5738 50.5801 28.3199 51.4503C30.7066 52.6353 33.3353 53.2513 36 53.25Z" stroke="white" stroke-width="3" stroke-linecap="round" stroke-linejoin="round"/>
</svg>
