<svg width="72" height="72" viewBox="0 0 72 72" fill="none" xmlns="http://www.w3.org/2000/svg">
<rect width="72" height="72" rx="20" fill="#104EFF"/>
<path d="M36.0003 19.0999C37.6357 19.0999 39.2043 19.7501 40.3607 20.9065C41.5169 22.0629 42.1663 23.6315 42.1663 25.2668C42.1662 26.9022 41.5171 28.4708 40.3607 29.6272C39.2043 30.7836 37.6357 31.4328 36.0003 31.4329C34.365 31.4329 32.7964 30.7835 31.64 29.6272C30.4836 28.4708 29.8334 26.9022 29.8333 25.2668C29.8333 23.6313 30.4835 22.063 31.64 20.9065C32.7964 19.75 34.3648 19.0999 36.0003 19.0999ZM36.0003 19.1663C32.6265 19.1663 29.8997 21.8931 29.8997 25.2668C29.8999 28.6405 32.6267 31.3665 36.0003 31.3665C39.3738 31.3663 42.0997 28.6403 42.0999 25.2668C42.0999 21.8932 39.3739 19.1664 36.0003 19.1663Z" fill="white" stroke="white" stroke-width="3"/>
<path d="M54.4 45.1999C53.5413 45.1999 52.8667 44.5252 52.8667 43.6665C52.8667 42.8079 53.5413 42.1332 54.4 42.1332C55.2587 42.1332 55.9333 41.4585 55.9333 40.5999C55.9333 38.5665 55.1256 36.6165 53.6878 35.1787C52.25 33.7409 50.3 32.9332 48.2667 32.9332H45.2C44.3413 32.9332 43.6667 32.2585 43.6667 31.3999C43.6667 30.5412 44.3413 29.8665 45.2 29.8665C47.7453 29.8665 49.8 27.8119 49.8 25.2665C49.8 22.7212 47.7453 20.6665 45.2 20.6665C44.3413 20.6665 43.6667 19.9919 43.6667 19.1332C43.6667 18.2745 44.3413 17.5999 45.2 17.5999C47.2333 17.5999 49.1834 18.4076 50.6212 19.8454C52.0589 21.2831 52.8667 23.2332 52.8667 25.2665C52.8667 27.1679 52.192 28.8852 51.0267 30.2345C55.596 31.4612 59 35.6319 59 40.5999C59 43.1452 56.9453 45.1999 54.4 45.1999ZM17.6 45.1999C15.0547 45.1999 13 43.1452 13 40.5999C13 35.6319 16.3733 31.4612 20.9733 30.2345C19.8387 28.8852 19.1333 27.1679 19.1333 25.2665C19.1333 23.2332 19.9411 21.2831 21.3788 19.8454C22.8166 18.4076 24.7667 17.5999 26.8 17.5999C27.6587 17.5999 28.3333 18.2745 28.3333 19.1332C28.3333 19.9919 27.6587 20.6665 26.8 20.6665C24.2547 20.6665 22.2 22.7212 22.2 25.2665C22.2 27.8119 24.2547 29.8665 26.8 29.8665C27.6587 29.8665 28.3333 30.5412 28.3333 31.3999C28.3333 32.2585 27.6587 32.9332 26.8 32.9332H23.7333C21.7 32.9332 19.75 33.7409 18.3122 35.1787C16.8744 36.6165 16.0667 38.5665 16.0667 40.5999C16.0667 41.4585 16.7413 42.1332 17.6 42.1332C18.4587 42.1332 19.1333 42.8079 19.1333 43.6665C19.1333 44.5252 18.4587 45.1999 17.6 45.1999ZM45.2 54.3999H26.8C24.2547 54.3999 22.2 52.3452 22.2 49.7999V46.7332C22.2 40.8145 27.0147 35.9999 32.9333 35.9999H39.0667C44.9853 35.9999 49.8 40.8145 49.8 46.7332V49.7999C49.8 52.3452 47.7453 54.3999 45.2 54.3999ZM32.9333 39.0665C30.9 39.0665 28.95 39.8743 27.5122 41.312C26.0744 42.7498 25.2667 44.6999 25.2667 46.7332V49.7999C25.2667 50.6585 25.9413 51.3332 26.8 51.3332H45.2C46.0587 51.3332 46.7333 50.6585 46.7333 49.7999V46.7332C46.7333 44.6999 45.9256 42.7498 44.4878 41.312C43.05 39.8743 41.1 39.0665 39.0667 39.0665H32.9333Z" fill="white"/>
</svg>
