<svg xmlns="http://www.w3.org/2000/svg" version="1.1" xmlns:xlink="http://www.w3.org/1999/xlink" width="1000" height="1000"><g clip-path="url(#SvgjsClipPath1033)"><rect width="1000" height="1000" fill="#ffffff"></rect><g transform="matrix(7.865168539325842,0,0,7.865168539325842,150,397.75280898876406)"><svg xmlns="http://www.w3.org/2000/svg" version="1.1" xmlns:xlink="http://www.w3.org/1999/xlink" width="89" height="26"><svg width="89" height="26" viewBox="0 0 89 26" fill="none" xmlns="http://www.w3.org/2000/svg">
<path d="M2.96461 25.6257C2.41306 25.603 1.89597 25.5122 1.41336 25.3534C0.93075 25.1719 0.45963 24.8883 0 24.5026C0.712426 23.0279 1.25249 21.3831 1.62019 19.5681C2.01088 17.7304 2.20622 15.8019 2.20622 13.7827C2.20622 13.4878 2.19473 13.1475 2.17175 12.7618C2.14877 12.3534 2.10281 12.0017 2.03386 11.7068C1.75808 11.4572 1.4938 11.1056 1.241 10.6518C0.988204 10.1754 0.78137 9.68761 0.6205 9.18848C0.482611 8.68935 0.413667 8.29232 0.413667 7.99738C0.666463 7.67976 1.13758 7.40751 1.82703 7.18063C2.51647 6.93107 3.15995 6.80628 3.75747 6.80628C3.98729 7.21466 4.19412 7.67976 4.37797 8.20157C4.56182 8.7007 4.72269 9.23386 4.86058 9.80105C5.4581 9.75567 6.22798 9.61955 7.17022 9.39267C7.90563 9.23386 8.49166 9.13176 8.9283 9.08639C9.38793 9.01833 9.77862 8.98429 10.1004 8.98429C11.3414 8.98429 12.3181 9.44939 13.0305 10.3796C13.7429 11.2871 14.0991 12.5236 14.0991 14.089V19.5681C14.0991 20.8159 14.26 21.712 14.5817 22.2565C14.9265 22.801 15.4665 23.0733 16.2019 23.0733C16.5237 23.0733 16.765 23.2094 16.9259 23.4817C17.1097 23.7539 17.2016 24.1169 17.2016 24.5707C17.2016 24.9337 17.0982 25.2627 16.8914 25.5576C16.7075 25.8525 16.3973 26 15.9606 26C12.6283 26 10.9622 23.9808 10.9622 19.9424V14.6675C10.9622 13.6466 10.8473 12.9319 10.6174 12.5236C10.3876 12.1152 9.97396 11.911 9.37644 11.911C9.16961 11.911 8.9398 11.9337 8.687 11.9791C8.4342 12.0244 7.98606 12.1152 7.34258 12.2513C6.44631 12.4328 5.74537 12.5576 5.23978 12.6257C5.26276 13.034 5.27425 13.4424 5.27425 13.8508C5.27425 15.8473 5.07891 17.9005 4.68822 20.0105C4.29754 22.0977 3.723 23.9695 2.96461 25.6257Z" fill="#104EFF"></path>
<path d="M16.1955 23.0733C16.9539 23.0733 17.6893 22.7216 18.4017 22.0183C19.1371 21.2923 19.7576 20.3281 20.2632 19.1257C20.1713 18.5812 20.1253 18.0253 20.1253 17.4581C20.1253 15.8246 20.4815 14.3726 21.194 13.1021C21.9064 11.8316 22.8716 10.8333 24.0896 10.1073C25.3306 9.35864 26.721 8.98429 28.2608 8.98429C29.8005 8.98429 31.1794 9.35864 32.3974 10.1073C33.6154 10.8333 34.5692 11.8316 35.2586 13.1021C35.971 14.3726 36.3273 15.8246 36.3273 17.4581C36.3273 19.0916 35.971 20.555 35.2586 21.8482C34.5692 23.1414 33.6154 24.1623 32.3974 24.911C31.2024 25.637 29.8235 26 28.2608 26C26.8589 26 25.5834 25.7051 24.4343 25.1152C23.3082 24.5026 22.3775 23.6745 21.6421 22.6309C20.2172 24.877 18.3213 26 15.9542 26C15.6554 26 15.4141 25.8639 15.2303 25.5916C15.0464 25.3194 14.9545 24.9677 14.9545 24.5367C14.9545 23.5611 15.3681 23.0733 16.1955 23.0733ZM28.2263 23.0733C29.6971 23.0733 30.8692 22.5628 31.7425 21.5419C32.6387 20.5209 33.0869 19.1597 33.0869 17.4581C33.0869 16.6187 32.9605 15.8473 32.7077 15.144C31.3288 15.0986 30.0763 14.8264 28.9502 14.3272C27.8471 13.8281 26.9738 13.1475 26.3303 12.2853C25.4111 12.671 24.6871 13.329 24.1586 14.2592C23.63 15.1667 23.3657 16.2557 23.3657 17.5262C23.3657 19.1824 23.8023 20.5209 24.6756 21.5419C25.5719 22.5628 26.7555 23.0733 28.2263 23.0733Z" fill="#104EFF"></path>
<path d="M47.6293 26C45.4001 26 43.688 25.2627 42.4929 23.788C41.3209 22.3133 40.7349 20.1693 40.7349 17.356V13.4424C40.0224 13.8281 39.2066 14.1344 38.2873 14.3613C37.391 14.5881 36.4373 14.7016 35.4261 14.7016C34.3 14.7016 33.3233 14.5541 32.496 14.2592C31.8755 14.055 31.5652 13.6579 31.5652 13.0681C31.5652 12.637 31.6916 12.274 31.9444 11.9791C32.1743 11.6841 32.45 11.5367 32.7718 11.5367C32.8637 11.5367 32.9441 11.548 33.0131 11.5707C33.082 11.5707 33.151 11.582 33.2199 11.6047C33.6106 11.6955 34.0013 11.7749 34.392 11.8429C34.7826 11.8883 35.1848 11.911 35.5985 11.911C36.7705 11.911 37.8851 11.6501 38.9423 11.1283C40.0224 10.5838 40.7693 9.92583 41.183 9.15445C41.6656 9.10908 42.1597 9.1658 42.6653 9.32461C43.1709 9.48342 43.5731 9.75567 43.8718 10.1414V17.322C43.8718 19.2958 44.1936 20.7365 44.837 21.644C45.4805 22.5288 46.4917 22.9712 47.8706 22.9712C51.157 22.9712 52.8001 20.6003 52.8001 15.8586V9.46073C52.984 9.39267 53.2138 9.33595 53.4896 9.29058C53.7654 9.2452 54.0526 9.22251 54.3514 9.22251C54.9029 9.22251 55.4315 9.30192 55.9371 9.46073V19.2618C55.9371 20.4642 56.121 21.4058 56.4887 22.0864C56.8793 22.7443 57.5228 23.0733 58.4191 23.0733C58.8098 23.0733 59.0741 23.2321 59.212 23.5497C59.3499 23.8674 59.4188 24.2077 59.4188 24.5707C59.4188 24.9337 59.3154 25.2627 59.1085 25.5576C58.9247 25.8525 58.6144 26 58.1778 26C55.9716 26 54.4778 25.0471 53.6964 23.1414C53.0529 24.0716 52.2256 24.7862 51.2144 25.2853C50.2032 25.7618 49.0082 26 47.6293 26Z" fill="#104EFF"></path>
<path d="M58.4105 23.0733C58.985 23.0733 59.64 22.9031 60.3754 22.5628C61.1338 22.2225 61.8692 21.644 62.5816 20.8272C63.294 20.0105 63.8801 18.9101 64.3397 17.5262C64.7993 16.1195 65.0291 14.3613 65.0291 12.2513V8.98429H62.4782C62.3173 8.62129 62.2369 8.16754 62.2369 7.62304C62.2369 7.07854 62.3173 6.62478 62.4782 6.26178H65.0291V0.238221C65.4658 0.079407 65.9944 0 66.6149 0C67.1664 0 67.695 0.079407 68.2006 0.238221V6.26178H73.337C73.5208 6.62478 73.6127 7.07854 73.6127 7.62304C73.6127 8.16754 73.5208 8.62129 73.337 8.98429H68.2006V16.0288C68.2006 18.2976 68.5453 20.0445 69.2348 21.2696C69.9472 22.4721 70.9469 23.0733 72.2338 23.0733C72.9003 23.0733 73.2335 23.5724 73.2335 24.5707C73.2335 25.0017 73.1186 25.3421 72.8888 25.5916C72.682 25.8639 72.3832 26 71.9925 26C70.4987 26 69.2348 25.5803 68.2006 24.7408C67.1894 23.9014 66.4425 22.733 65.9599 21.2356C64.9947 22.8691 63.8111 24.0716 62.4093 24.8429C61.0074 25.6143 59.594 26 58.1692 26C57.8704 26 57.6291 25.8525 57.4453 25.5576C57.2614 25.2853 57.1695 24.945 57.1695 24.5367C57.1695 24.1056 57.2729 23.7539 57.4797 23.4817C57.6866 23.2094 57.9968 23.0733 58.4105 23.0733Z" fill="#104EFF"></path>
<path d="M72.0052 26C71.7064 26 71.4651 25.8639 71.2813 25.5916C71.0974 25.3194 71.0055 24.9677 71.0055 24.5367C71.0055 23.5611 71.4192 23.0733 72.2465 23.0733C72.913 23.0733 73.5909 22.9712 74.2804 22.767C74.9698 22.5401 75.7742 22.1658 76.6934 21.644C75.7971 20.1012 75.349 18.2862 75.349 16.199C75.349 14.7923 75.6133 13.5558 76.1419 12.4895C76.6704 11.4005 77.4058 10.5497 78.3481 9.93717C79.2903 9.30192 80.359 8.98429 81.554 8.98429C82.5652 8.98429 83.4615 9.22251 84.2428 9.69895C85.0242 10.1527 85.6332 10.788 86.0699 11.6047C86.5065 12.4215 86.7248 13.363 86.7248 14.4293C86.7248 15.8813 86.2882 17.2086 85.4149 18.411C84.5646 19.6134 83.1167 20.918 81.0714 22.3246C81.8068 22.8464 82.795 23.1073 84.036 23.1073C84.7025 23.1073 85.3689 23.0166 86.0354 22.8351C86.7019 22.6536 87.3453 22.404 87.9658 22.0864C88.3106 22.336 88.5633 22.7103 88.7242 23.2094C88.9081 23.6859 89 24.151 89 24.6047C88.2416 25.0358 87.4373 25.3761 86.5869 25.6257C85.7366 25.8752 84.8403 26 83.8981 26H83.8636C82.7605 26 81.7264 25.8185 80.7611 25.4555C79.7959 25.0925 78.9916 24.5934 78.3481 23.9581C76.1419 25.3194 74.0276 26 72.0052 26ZM78.3481 15.9267C78.3481 17.719 78.6698 19.1483 79.3133 20.2147C80.8071 19.1937 81.9102 18.1955 82.6226 17.2199C83.358 16.2443 83.7257 15.3141 83.7257 14.4293C83.7257 13.6126 83.5189 12.9773 83.1052 12.5236C82.7146 12.0471 82.163 11.8089 81.4506 11.8089C80.5543 11.8089 79.8074 12.2059 79.2099 13C78.6353 13.7941 78.3481 14.7696 78.3481 15.9267Z" fill="#104EFF"></path>
</svg></svg></g></g><defs><clipPath id="SvgjsClipPath1033"><rect width="1000" height="1000" x="0" y="0" rx="350" ry="350"></rect></clipPath></defs></svg>