<svg width="136" height="135" viewBox="0 0 136 135" fill="none" xmlns="http://www.w3.org/2000/svg">
<path d="M68.0071 0C77.9651 32.2712 103.229 57.5491 135.514 67.5071C103.243 77.4651 77.9651 102.729 68.0071 135.014C58.0491 102.729 32.7712 77.4509 0.5 67.5071C32.7712 57.5491 58.0491 32.2712 68.0071 0Z" fill="url(#paint0_linear_533_22131)"/>
<path d="M68.0071 0C77.9651 32.2712 103.229 57.5491 135.514 67.5071C103.243 77.4651 77.9651 102.729 68.0071 135.014C58.0491 102.729 32.7712 77.4509 0.5 67.5071C32.7712 57.5491 58.0491 32.2712 68.0071 0Z" fill="url(#paint1_linear_533_22131)" fill-opacity="0.2"/>
<defs>
<linearGradient id="paint0_linear_533_22131" x1="68.0071" y1="0" x2="68.0071" y2="135.014" gradientUnits="userSpaceOnUse">
<stop stop-color="#0D2DE1"/>
<stop offset="1" stop-color="#07197B"/>
</linearGradient>
<linearGradient id="paint1_linear_533_22131" x1="47" y1="44.5" x2="119.5" y2="80.5" gradientUnits="userSpaceOnUse">
<stop stop-color="white"/>
<stop offset="1" stop-color="white" stop-opacity="0"/>
</linearGradient>
</defs>
</svg>
