<svg width="72" height="72" viewBox="0 0 72 72" fill="none" xmlns="http://www.w3.org/2000/svg">
<rect width="72" height="72" rx="20" fill="#104EFF"/>
<path d="M28.3333 22.5834C28.3333 23.8542 27.8285 25.073 26.9299 25.9716C26.0313 26.8702 24.8125 27.3751 23.5417 27.3751C22.2708 27.3751 21.0521 26.8702 20.1534 25.9716C19.2548 25.073 18.75 23.8542 18.75 22.5834C18.75 21.3126 19.2548 20.0938 20.1534 19.1952C21.0521 18.2966 22.2708 17.7917 23.5417 17.7917C24.8125 17.7917 26.0313 18.2966 26.9299 19.1952C27.8285 20.0938 28.3333 21.3126 28.3333 22.5834ZM28.3333 22.5834H38.875M38.875 22.5834L35.0417 18.7501M38.875 22.5834L35.0417 26.4167" stroke="white" stroke-width="3" stroke-linecap="round" stroke-linejoin="round"/>
<path d="M43.6667 49.4167C43.6667 50.6875 44.1715 51.9063 45.0701 52.8049C45.9687 53.7035 47.1875 54.2083 48.4583 54.2083C49.7292 54.2083 50.9479 53.7035 51.8466 52.8049C52.7452 51.9063 53.25 50.6875 53.25 49.4167C53.25 48.1458 52.7452 46.9271 51.8466 46.0284C50.9479 45.1298 49.7292 44.625 48.4583 44.625C47.1875 44.625 45.9687 45.1298 45.0701 46.0284C44.1715 46.9271 43.6667 48.1458 43.6667 49.4167ZM43.6667 49.4167H33.125M33.125 49.4167L36.9583 45.5833M33.125 49.4167L36.9583 53.25" stroke="white" stroke-width="3" stroke-linecap="round" stroke-linejoin="round"/>
<path d="M49.4167 28.3333C48.1458 28.3333 46.9271 27.8285 46.0284 26.9299C45.1298 26.0313 44.625 24.8125 44.625 23.5417C44.625 22.2708 45.1298 21.0521 46.0284 20.1534C46.9271 19.2548 48.1458 18.75 49.4167 18.75C50.6875 18.75 51.9063 19.2548 52.8049 20.1534C53.7035 21.0521 54.2083 22.2708 54.2083 23.5417C54.2083 24.8125 53.7035 26.0313 52.8049 26.9299C51.9063 27.8285 50.6875 28.3333 49.4167 28.3333ZM49.4167 28.3333V38.875M49.4167 38.875L53.25 35.0417M49.4167 38.875L45.5833 35.0417" stroke="white" stroke-width="3" stroke-linecap="round" stroke-linejoin="round"/>
<path d="M22.5833 43.6667C21.3125 43.6667 20.0937 44.1715 19.1951 45.0701C18.2965 45.9687 17.7916 47.1875 17.7916 48.4583C17.7916 49.7292 18.2965 50.9479 19.1951 51.8466C20.0937 52.7452 21.3125 53.25 22.5833 53.25C23.8541 53.25 25.0729 52.7452 25.9715 51.8466C26.8701 50.9479 27.375 49.7292 27.375 48.4583C27.375 47.1875 26.8701 45.9687 25.9715 45.0701C25.0729 44.1715 23.8541 43.6667 22.5833 43.6667ZM22.5833 43.6667V33.125M22.5833 33.125L26.4166 36.9583M22.5833 33.125L18.75 36.9583" stroke="white" stroke-width="3" stroke-linecap="round" stroke-linejoin="round"/>
</svg>
