<svg width="72" height="72" viewBox="0 0 72 72" fill="none" xmlns="http://www.w3.org/2000/svg">
<rect width="72" height="72" rx="20" fill="#104EFF"/>
<path d="M32.32 28.3333L29.1384 42.0259C28.4484 44.9968 28.1053 46.4802 28.5001 47.8756L28.5231 47.958C28.9371 49.3476 30.0219 50.4075 32.1878 52.5293C33.976 54.2792 34.8711 55.1551 35.9694 55.1666H36.0307C37.1309 55.1532 38.024 54.2792 39.8123 52.5293C41.9781 50.4075 43.0629 49.3476 43.4769 47.958L43.4999 47.8756C43.8948 46.4802 43.5498 44.9948 42.8598 42.0259L39.6819 28.3333M29.7153 23.7524C28.6439 21.8549 28.1091 20.9043 28.4235 20.0418C28.7378 19.1793 29.7498 18.8189 31.7738 18.1021L33.4988 17.4907C34.7369 17.0518 35.3579 16.8333 36 16.8333C36.6421 16.8333 37.2631 17.0518 38.5013 17.4907L40.2263 18.104C42.2503 18.8189 43.2623 19.1773 43.5766 20.0398C43.8929 20.9023 43.3562 21.853 42.2848 23.7505L41.2958 25.5043C40.7879 26.4032 40.5349 26.8517 40.0883 27.2043C39.6475 27.557 39.2354 27.6739 38.4112 27.9097C37.6235 28.1358 36.7245 28.3333 36 28.3333C35.2755 28.3333 34.3766 28.1358 33.5889 27.9097C32.7647 27.6739 32.3545 27.557 31.9099 27.2043C31.4652 26.8517 31.2122 26.4032 30.7043 25.5043L29.7153 23.7524Z" stroke="white" stroke-width="3"/>
</svg>
