<svg width="72" height="72" viewBox="0 0 72 72" fill="none" xmlns="http://www.w3.org/2000/svg">
<rect width="72" height="72" rx="20" fill="#104EFF"/>
<path d="M22.5833 37.9167V22.5833C22.5833 21.5667 22.9872 20.5916 23.7061 19.8728C24.425 19.1539 25.4 18.75 26.4167 18.75H49.4167C50.4333 18.75 51.4084 19.1539 52.1272 19.8728C52.8461 20.5916 53.25 21.5667 53.25 22.5833V47.5C53.25 49.4167 52.1 53.25 47.5 53.25M47.5 53.25H24.5C22.5833 53.25 18.75 52.1 18.75 47.5V43.6667H41.75V47.5C41.75 52.1 45.5833 53.25 47.5 53.25ZM30.25 26.4167H45.5833M30.25 34.0833H37.9167" stroke="white" stroke-width="3" stroke-linecap="round" stroke-linejoin="round"/>
</svg>
