<svg width="36" height="37" viewBox="0 0 36 37" fill="none" xmlns="http://www.w3.org/2000/svg">
<rect y="0.787109" width="36" height="36" rx="8" fill="white"/>
<path d="M18 9.78711C21.5951 9.78711 23.3928 9.78691 24.6875 10.6436C25.2657 11.0261 25.761 11.5214 26.1436 12.0996C27.0002 13.3943 27 15.192 27 18.7871C27 22.3822 27.0002 24.1799 26.1436 25.4746C25.761 26.0528 25.2657 26.5481 24.6875 26.9307C23.3928 27.7873 21.5951 27.7871 18 27.7871C14.4049 27.7871 12.6072 27.7873 11.3125 26.9307C10.7343 26.5481 10.239 26.0528 9.85645 25.4746C8.9998 24.1799 9 22.3822 9 18.7871C9 15.192 8.9998 13.3943 9.85645 12.0996C10.239 11.5214 10.7343 11.0261 11.3125 10.6436C12.6072 9.78691 14.4049 9.78711 18 9.78711ZM18 14.1279C15.4268 14.1279 13.3409 16.2139 13.3408 18.7871C13.3408 21.3604 15.4267 23.4463 18 23.4463C20.5732 23.4462 22.6592 21.3604 22.6592 18.7871C22.6591 16.2139 20.5732 14.128 18 14.1279ZM18 15.7041C19.7025 15.7042 21.0829 17.0846 21.083 18.7871C21.083 20.4898 19.7026 21.87 18 21.8701C16.2973 21.8701 14.917 20.4898 14.917 18.7871C14.9171 17.0845 16.2974 15.7041 18 15.7041ZM22.8438 12.7988C22.2392 12.7988 21.7482 13.289 21.748 13.8936C21.748 14.4982 22.2391 14.9883 22.8438 14.9883C23.4482 14.988 23.9385 14.4981 23.9385 13.8936C23.9383 13.2892 23.4481 12.7991 22.8438 12.7988Z" fill="#1E3A8A"/>
</svg>
