<svg width="36" height="37" viewBox="0 0 36 37" fill="none" xmlns="http://www.w3.org/2000/svg">
<rect y="0.787109" width="36" height="36" rx="8" fill="white"/>
<path d="M9 12.2072C9 11.6299 9.20271 11.1538 9.60811 10.7786C10.0135 10.4034 10.5405 10.2158 11.1892 10.2158C11.8263 10.2158 12.3417 10.4005 12.7355 10.7699C13.1409 11.1509 13.3436 11.6473 13.3436 12.2591C13.3436 12.8132 13.1467 13.275 12.7529 13.6444C12.3475 14.0253 11.8147 14.2158 11.1544 14.2158H11.1371C10.5 14.2158 9.98456 14.0253 9.59073 13.6444C9.19691 13.2634 9 12.7844 9 12.2072ZM9.22587 27.3587V15.7916H13.083V27.3587H9.22587ZM15.2201 27.3587H19.0772V20.8998C19.0772 20.4957 19.1236 20.1841 19.2162 19.9647C19.3784 19.5722 19.6245 19.2403 19.9546 18.9691C20.2847 18.6978 20.6988 18.5621 21.1969 18.5621C22.4942 18.5621 23.1429 19.4337 23.1429 21.1769V27.3587H27V20.7266C27 19.0181 26.5946 17.7223 25.7838 16.8392C24.973 15.9561 23.9015 15.5145 22.5695 15.5145C21.0753 15.5145 19.9112 16.1552 19.0772 17.4366V17.4712H19.0598L19.0772 17.4366V15.7916H15.2201C15.2432 16.161 15.2548 17.3096 15.2548 19.2375C15.2548 21.1653 15.2432 23.8724 15.2201 27.3587Z" fill="#1E3A8A"/>
</svg>
