<svg width="14" height="14" viewBox="0 0 14 14" fill="none" xmlns="http://www.w3.org/2000/svg">
<path d="M5.04993 7L1.17493 1.575C0.941601 1.24167 0.912601 0.896 1.08793 0.538C1.26327 0.18 1.55893 0.000666667 1.97493 0C2.1416 0 2.29993 0.0376666 2.44993 0.113C2.59993 0.188333 2.7166 0.292334 2.79993 0.425L7.49993 7L2.79993 13.575C2.7166 13.7083 2.59993 13.8127 2.44993 13.888C2.29993 13.9633 2.1416 14.0007 1.97493 14C1.57493 14 1.28327 13.821 1.09993 13.463C0.916601 13.105 0.941601 12.759 1.17493 12.425L5.04993 7ZM10.9999 7L7.12493 1.575C6.8916 1.24167 6.86227 0.896 7.03693 0.538C7.2116 0.18 7.50793 0.000666667 7.92593 0C8.0926 0 8.25093 0.0376666 8.40093 0.113C8.55093 0.188333 8.6676 0.292334 8.75094 0.425L13.4499 7L8.74993 13.575C8.6666 13.7083 8.54993 13.8127 8.39993 13.888C8.24993 13.9633 8.0916 14.0007 7.92493 14C7.52493 14 7.23327 13.821 7.04993 13.463C6.8666 13.105 6.8916 12.759 7.12493 12.425L10.9999 7Z" fill="#EE4B00"/>
</svg>
