<svg width="36" height="37" viewBox="0 0 36 37" fill="none" xmlns="http://www.w3.org/2000/svg">
<rect y="0.787109" width="36" height="36" rx="8" fill="white"/>
<path d="M21.0271 11.4886V11.4854H21.8711L22.1794 11.5469C22.385 11.5869 22.5717 11.6393 22.7394 11.7042C22.9071 11.769 23.0694 11.8446 23.2263 11.9311C23.3832 12.0175 23.5255 12.1056 23.6532 12.1953C23.7798 12.2839 23.8934 12.3779 23.9941 12.4773C24.0936 12.5778 24.2489 12.6037 24.4599 12.5551C24.6709 12.5065 24.8981 12.4389 25.1416 12.3525C25.385 12.2661 25.6258 12.1688 25.8638 12.0608C26.1019 11.9527 26.2469 11.8841 26.2988 11.8549C26.3497 11.8247 26.3768 11.8084 26.38 11.8063L26.3832 11.8014L26.3995 11.7933L26.4157 11.7852L26.4319 11.7771L26.4482 11.769L26.4514 11.7641L26.4563 11.7609L26.4612 11.7577L26.4644 11.7528L26.4806 11.7479L26.4968 11.7447L26.4936 11.769L26.4887 11.7933L26.4806 11.8176L26.4725 11.8419L26.4644 11.8581L26.4563 11.8744L26.4482 11.8987C26.4427 11.9149 26.4373 11.9365 26.4319 11.9635C26.4265 11.9905 26.3751 12.0986 26.2777 12.2877C26.1803 12.4768 26.0586 12.6686 25.9125 12.8631C25.7665 13.0576 25.6355 13.2045 25.5198 13.3039C25.4029 13.4044 25.3255 13.4747 25.2876 13.5146C25.2498 13.5557 25.2038 13.5935 25.1497 13.6281L25.0685 13.6816L25.0523 13.6897L25.0361 13.6978L25.0328 13.7027L25.028 13.7059L25.0231 13.7091L25.0198 13.714L25.0036 13.7221L24.9874 13.7302L24.9841 13.7351L24.9793 13.7383L24.9744 13.7416L24.9711 13.7464L24.9679 13.7513L24.963 13.7545L24.9582 13.7578L24.9549 13.7626H25.0361L25.4905 13.6654C25.7935 13.6005 26.083 13.5222 26.3589 13.4304L26.7971 13.2845L26.8458 13.2683L26.8702 13.2602L26.8864 13.2521L26.9026 13.244L26.9188 13.2359L26.9351 13.2278L26.9675 13.2229L27 13.2197V13.2521L26.9919 13.2553L26.9838 13.2602L26.9805 13.265L26.9757 13.2683L26.9708 13.2715L26.9675 13.2764L26.9643 13.2812L26.9594 13.2845L26.9546 13.2877L26.9513 13.2926L26.9481 13.2975L26.9432 13.3007L26.9351 13.3169L26.927 13.3331L26.9221 13.3364C26.9199 13.3396 26.8512 13.4314 26.716 13.6119C26.5807 13.7934 26.5077 13.8853 26.4968 13.8874C26.486 13.8907 26.4709 13.9069 26.4514 13.9361C26.433 13.9663 26.3183 14.0868 26.1073 14.2975C25.8963 14.5082 25.6897 14.6957 25.4873 14.8599C25.2839 15.0253 25.1811 15.2284 25.1789 15.4694C25.1757 15.7093 25.1632 15.9805 25.1416 16.283C25.1199 16.5856 25.0794 16.9125 25.0198 17.2636C24.9603 17.6148 24.8684 18.0119 24.7439 18.455C24.6195 18.898 24.468 19.3302 24.2894 19.7516C24.1109 20.1731 23.9243 20.5512 23.7295 20.8862C23.5347 21.2212 23.3562 21.5049 23.1939 21.7372C23.0316 21.9695 22.8666 22.1883 22.6988 22.3936C22.5311 22.5989 22.319 22.8302 22.0626 23.0873C21.8051 23.3434 21.6644 23.4839 21.6406 23.5087C21.6157 23.5325 21.5097 23.6211 21.3225 23.7746C21.1363 23.9291 20.9362 24.0836 20.7219 24.2381C20.5088 24.3916 20.3129 24.5196 20.1344 24.6223C19.9558 24.7249 19.7405 24.8421 19.4884 24.974C19.2373 25.1069 18.9657 25.2301 18.6736 25.3435C18.3814 25.457 18.073 25.5624 17.7484 25.6596C17.4238 25.7569 17.11 25.8325 16.807 25.8865C16.5041 25.9405 16.1605 25.9865 15.7764 26.0243L15.2002 26.081V26.0891H14.1452V26.081L14.0072 26.0729C13.9152 26.0675 13.8395 26.0621 13.78 26.0567C13.7205 26.0513 13.4959 26.0216 13.1064 25.9676C12.7169 25.9135 12.4112 25.8595 12.1894 25.8055C11.9675 25.7515 11.6375 25.6488 11.1993 25.4975C10.761 25.3462 10.3861 25.1933 10.0745 25.0388C9.76394 24.8854 9.56917 24.7881 9.49017 24.7471C9.41226 24.7071 9.32462 24.6574 9.22723 24.598L9.08115 24.5088L9.07792 24.5039L9.07304 24.5007L9.06817 24.4975L9.06492 24.4926L9.04869 24.4845L9.03246 24.4764L9.02923 24.4715L9.02435 24.4683L9.01948 24.465L9.01623 24.4602L9.013 24.4553L9.00812 24.4521H9V24.4197L9.01623 24.4229L9.03246 24.4278L9.1055 24.4359C9.15419 24.4413 9.28675 24.4494 9.50316 24.4602C9.71958 24.471 9.9495 24.471 10.193 24.4602C10.4364 24.4494 10.6853 24.4251 10.9396 24.3872C11.1939 24.3494 11.4941 24.2846 11.8404 24.1927C12.1867 24.1009 12.5048 23.9918 12.7948 23.8653C13.0837 23.7378 13.2893 23.6427 13.4116 23.5801C13.5327 23.5185 13.7178 23.4039 13.9666 23.2364L14.3399 22.9852L14.3432 22.9804L14.3481 22.9771L14.3529 22.9739L14.3562 22.969L14.3594 22.9641L14.3643 22.9609L14.3692 22.9577L14.3724 22.9528L14.3886 22.9479L14.4049 22.9447L14.4081 22.9285L14.413 22.9123L14.4179 22.909L14.4211 22.9042L14.2913 22.8961C14.2047 22.8907 14.1208 22.8853 14.0397 22.8799C13.9585 22.8745 13.8314 22.8502 13.6583 22.8069C13.4851 22.7637 13.2985 22.6989 13.0983 22.6124C12.8981 22.526 12.7033 22.4233 12.514 22.3045C12.3246 22.1856 12.1877 22.0867 12.1033 22.0079C12.02 21.93 11.9118 21.8198 11.7787 21.6772C11.6467 21.5335 11.532 21.386 11.4346 21.2347C11.3372 21.0834 11.2442 20.9089 11.1555 20.7112L11.0207 20.4162L11.0126 20.3919L11.0045 20.3676L10.9996 20.3514L10.9964 20.3351L11.0207 20.3384L11.0451 20.3432L11.2236 20.3676C11.3427 20.3838 11.5293 20.3892 11.7836 20.3838C12.0379 20.3784 12.2137 20.3676 12.3111 20.3514C12.4085 20.3351 12.468 20.3243 12.4896 20.3189L12.5221 20.3108L12.5627 20.3027L12.6032 20.2946L12.6065 20.2898L12.6114 20.2865L12.6162 20.2833L12.6195 20.2784L12.587 20.2703L12.5546 20.2622L12.5221 20.2541L12.4896 20.246L12.4572 20.2379C12.4355 20.2325 12.3977 20.2217 12.3436 20.2055C12.2895 20.1893 12.1434 20.1298 11.9053 20.0272C11.6673 19.9245 11.4779 19.8246 11.3372 19.7273C11.1962 19.6298 11.0618 19.5231 10.9347 19.408C10.8081 19.2913 10.6691 19.1411 10.5176 18.9574C10.3661 18.7737 10.2308 18.5603 10.1118 18.3172C9.99279 18.0741 9.90352 17.8418 9.844 17.6202C9.78472 17.4 9.74561 17.1749 9.72716 16.9476L9.69793 16.6072L9.71416 16.6105L9.73039 16.6153L9.74662 16.6234L9.76285 16.6315L9.77908 16.6396L9.79531 16.6477L10.0469 16.7612C10.2146 16.8368 10.4229 16.9017 10.6718 16.9557C10.9207 17.0097 11.0694 17.0394 11.1181 17.0448L11.1912 17.0529H11.3372L11.334 17.0481L11.3291 17.0448L11.3243 17.0416L11.321 17.0367L11.3178 17.0319L11.3129 17.0286L11.308 17.0254L11.3048 17.0205L11.2885 17.0124L11.2723 17.0043L11.2691 16.9995L11.2642 16.9962L11.2593 16.993L11.2561 16.9881L11.2399 16.98L11.2236 16.9719L11.2204 16.967C11.2171 16.9649 11.1706 16.9303 11.0808 16.8633C10.9921 16.7952 10.899 16.7072 10.8016 16.5991C10.7042 16.491 10.6069 16.3776 10.5095 16.2587C10.4119 16.1396 10.325 16.0121 10.2498 15.8778C10.174 15.7428 10.094 15.5709 10.0096 15.3624C9.92625 15.1549 9.86294 14.9458 9.81966 14.7351C9.77639 14.5244 9.75204 14.3164 9.74662 14.1111C9.74121 13.9058 9.74662 13.7302 9.76285 13.5843C9.77908 13.4385 9.81154 13.2737 9.86023 13.09C9.90893 12.9063 9.97927 12.7118 10.0712 12.5065L10.2092 12.1985L10.2173 12.1742L10.2254 12.1499L10.2303 12.1467L10.2335 12.1418L10.2368 12.1369L10.2417 12.1337L10.2465 12.1369L10.2498 12.1418L10.253 12.1467L10.2579 12.1499L10.2628 12.1531L10.266 12.158L10.2693 12.1629L10.2741 12.1661L10.2822 12.1823L10.2904 12.1985L10.2952 12.2018L10.2985 12.2066L10.5176 12.4498C10.6637 12.6118 10.8368 12.7928 11.037 12.9927C11.2372 13.1926 11.3481 13.2964 11.3697 13.3039C11.3914 13.3126 11.4184 13.3374 11.4509 13.3785C11.4833 13.4185 11.5915 13.5141 11.7755 13.6654C11.9594 13.8167 12.2002 13.9923 12.4977 14.1922C12.7953 14.3921 13.1253 14.5893 13.4878 14.7838C13.8503 14.9783 14.2399 15.1538 14.6564 15.3105C15.073 15.4672 15.3652 15.5699 15.5329 15.6185C15.7006 15.6671 15.9874 15.7292 16.3931 15.8049C16.7989 15.8805 17.1046 15.9292 17.3102 15.9508C17.5158 15.9724 17.6565 15.9848 17.7322 15.988L17.8458 15.9913L17.8426 15.967L17.8377 15.9427L17.8052 15.7401C17.7836 15.605 17.7728 15.4159 17.7728 15.1728C17.7728 14.9296 17.7917 14.7054 17.8296 14.5001C17.8675 14.2948 17.9243 14.0868 18 13.8761C18.0757 13.6654 18.1499 13.4963 18.2224 13.3688C18.296 13.2423 18.3923 13.0981 18.5113 12.936C18.6303 12.7739 18.7845 12.6064 18.9739 12.4335C19.1632 12.2606 19.3796 12.1067 19.6231 11.9716C19.8665 11.8365 20.0911 11.7339 20.2967 11.6636C20.5023 11.5934 20.6754 11.5475 20.8161 11.5259C20.9567 11.5043 21.0271 11.4918 21.0271 11.4886Z" fill="#1E3A8A"/>
</svg>
