<svg width="36" height="37" viewBox="0 0 36 37" fill="none" xmlns="http://www.w3.org/2000/svg">
<rect y="0.787109" width="36" height="36" rx="8" fill="white"/>
<path d="M18.4386 25.7668L14.3764 25.6909C13.0612 25.6644 11.7427 25.7172 10.4532 25.4431C8.49165 25.0336 8.35268 23.0257 8.20727 21.3415C8.00691 18.9736 8.08448 16.5628 8.46258 14.2148C8.67604 12.8972 9.51607 12.1111 10.8152 12.0255C15.2005 11.715 19.615 11.7518 23.9906 11.8967C24.4528 11.91 24.9181 11.9825 25.3737 12.0651C27.6231 12.4681 27.6779 14.7435 27.8237 16.6589C27.9691 18.5941 27.9077 20.5393 27.6298 22.4613C27.4068 24.0527 26.9802 25.3873 25.1798 25.5161C22.9241 25.6846 20.7201 25.8202 18.458 25.777C18.4581 25.7668 18.4451 25.7668 18.4386 25.7668ZM16.0505 21.7378C17.7504 20.7404 19.4178 19.7596 21.108 18.7689C19.4049 17.7715 17.7406 16.7907 16.0505 15.8V21.7378Z" fill="#1E3A8A"/>
</svg>
